<svg xmlns="http://www.w3.org/2000/svg" xmlns:xlink="http://www.w3.org/1999/xlink" width="1920" zoomAndPan="magnify" viewBox="0 0 1440 809.999993" height="1080" preserveAspectRatio="xMidYMid meet" version="1.0"><defs><g/><clipPath id="4c7750a887"><path d="M 297.210938 276.035156 L 432.378906 276.035156 L 432.378906 302.40625 L 297.210938 302.40625 Z M 297.210938 276.035156 " clip-rule="nonzero"/></clipPath><clipPath id="a906c97423"><path d="M 299.460938 276.035156 L 430.128906 276.035156 C 430.726562 276.035156 431.300781 276.273438 431.722656 276.695312 C 432.144531 277.117188 432.378906 277.6875 432.378906 278.285156 L 432.378906 300.15625 C 432.378906 300.753906 432.144531 301.328125 431.722656 301.75 C 431.300781 302.171875 430.726562 302.40625 430.128906 302.40625 L 299.460938 302.40625 C 298.863281 302.40625 298.292969 302.171875 297.871094 301.75 C 297.449219 301.328125 297.210938 300.753906 297.210938 300.15625 L 297.210938 278.285156 C 297.210938 277.6875 297.449219 277.117188 297.871094 276.695312 C 298.292969 276.273438 298.863281 276.035156 299.460938 276.035156 Z M 299.460938 276.035156 " clip-rule="nonzero"/></clipPath></defs><g clip-path="url(#4c7750a887)"><g clip-path="url(#a906c97423)"><path fill="#ebe9e3" d="M 297.210938 276.035156 L 432.378906 276.035156 L 432.378906 302.40625 L 297.210938 302.40625 Z M 297.210938 276.035156 " fill-opacity="1" fill-rule="nonzero"/></g></g><g fill="#ebe9e3" fill-opacity="1"><g transform="translate(298.184787, 301.916524)"><g><path d="M 73.917969 -25.496094 L 0 -25.496094 L 0 -1.539062 C 0 -0.855469 0.855469 0 1.882812 0 L 73.917969 0 C 75.117188 0 75.800781 -0.855469 75.800781 -1.539062 L 75.800781 -23.785156 C 75.800781 -24.640625 75.117188 -25.496094 73.917969 -25.496094 Z M 26.179688 -51.675781 L 26.179688 -135.34375 C 26.179688 -136.027344 25.496094 -136.882812 24.46875 -136.882812 L 1.882812 -136.882812 C 0.855469 -136.882812 0 -136.027344 0 -135.34375 L 0 -51.675781 Z M 26.179688 -51.675781 "/></g></g></g><g fill="#ebe9e3" fill-opacity="1"><g transform="translate(343.261571, 252.169174)"><g><path d="M 48.714844 -144.878906 L 1.8125 -144.878906 C 0.90625 -144.878906 0 -143.972656 0 -143.246094 L 0 -118.257812 L 48.714844 -118.257812 C 51.976562 -118.257812 70.085938 -117.351562 70.085938 -101.414062 C 70.085938 -85.476562 52.335938 -85.117188 48.714844 -85.117188 L 0 -85.117188 L 0 -1.628906 C 0 -0.90625 0.90625 0 1.8125 0 L 25.355469 0 C 26.621094 0 27.164062 -0.90625 27.164062 -1.628906 L 27.164062 -58.3125 L 48.714844 -58.3125 C 52.15625 -58.3125 97.609375 -58.855469 97.609375 -101.414062 C 97.609375 -143.972656 54.511719 -144.878906 48.714844 -144.878906 Z M 48.714844 -144.878906 "/></g></g></g><g fill="#ebe9e3" fill-opacity="1"><g transform="translate(478.205286, 186.054494)"><g><path d="M 49.78125 -9.75 L 49.78125 0 L 7.546875 0 L 7.546875 -58.515625 L 19.25 -58.515625 L 19.25 -9.75 Z M 49.78125 -9.75 "/></g></g></g><g fill="#ebe9e3" fill-opacity="1"><g transform="translate(561.037041, 186.054494)"><g><path d="M 49.78125 -9.25 L 49.78125 0 L 7.546875 0 L 7.546875 -58.515625 L 48.921875 -58.515625 L 48.921875 -49.359375 L 19.25 -49.359375 L 19.25 -33.921875 L 46.8125 -33.921875 L 46.8125 -24.671875 L 19.25 -24.671875 L 19.25 -9.25 Z M 49.78125 -9.25 "/></g></g></g><g fill="#ebe9e3" fill-opacity="1"><g transform="translate(644.885857, 186.054494)"><g><path d="M 35.1875 -58.171875 C 42.425781 -57.328125 48.25 -54.554688 52.65625 -49.859375 C 57.0625 -45.171875 59.265625 -38.554688 59.265625 -30.015625 C 59.265625 -21.421875 57.003906 -14.535156 52.484375 -9.359375 C 47.960938 -4.191406 42.140625 -1.1875 35.015625 -0.34375 C 33.035156 -0.113281 30.550781 0 27.5625 0 L 7.546875 0 L 7.546875 -58.515625 L 27.734375 -58.515625 C 30.722656 -58.515625 33.207031 -58.398438 35.1875 -58.171875 Z M 32.390625 -9.5 C 36.859375 -10.0625 40.390625 -12.125 42.984375 -15.6875 C 45.585938 -19.25 46.890625 -23.96875 46.890625 -29.84375 C 46.890625 -35.5 45.617188 -39.96875 43.078125 -43.25 C 40.535156 -46.53125 37.054688 -48.453125 32.640625 -49.015625 C 30.890625 -49.242188 28.800781 -49.359375 26.375 -49.359375 L 19.25 -49.359375 L 19.25 -9.25 L 26.203125 -9.25 C 29.085938 -9.25 31.148438 -9.332031 32.390625 -9.5 Z M 32.390625 -9.5 "/></g></g></g><g fill="#ebe9e3" fill-opacity="1"><g transform="translate(738.481957, 186.054494)"><g><path d="M 34.34375 -29.84375 L 57.921875 -29.84375 L 57.921875 0 L 48.5 0 L 47.734375 -9.5 L 45.109375 -3.5625 C 41.890625 -0.394531 37.140625 1.1875 30.859375 1.1875 C 22.722656 1.1875 16.265625 -1.507812 11.484375 -6.90625 C 6.710938 -12.3125 4.328125 -19.648438 4.328125 -28.921875 C 4.328125 -38.296875 7.039062 -45.769531 12.46875 -51.34375 C 17.894531 -56.914062 24.789062 -59.703125 33.15625 -59.703125 C 40.789062 -59.703125 46.753906 -57.847656 51.046875 -54.140625 C 55.347656 -50.441406 57.804688 -45.566406 58.421875 -39.515625 L 58.515625 -38.671875 L 46.8125 -38.671875 L 46.640625 -39.515625 C 45.109375 -47.148438 40.554688 -50.96875 32.984375 -50.96875 C 28.179688 -50.96875 24.265625 -49.046875 21.234375 -45.203125 C 18.210938 -41.359375 16.703125 -36.15625 16.703125 -29.59375 C 16.703125 -22.53125 18.171875 -17.085938 21.109375 -13.265625 C 24.054688 -9.453125 27.898438 -7.546875 32.640625 -7.546875 C 36.429688 -7.546875 39.582031 -8.703125 42.09375 -11.015625 C 44.613281 -13.335938 46.15625 -16.5625 46.71875 -20.6875 L 34.34375 -20.6875 Z M 34.34375 -29.84375 "/></g></g></g><g fill="#ebe9e3" fill-opacity="1"><g transform="translate(832.586627, 186.054494)"><g><path d="M 49.78125 -9.25 L 49.78125 0 L 7.546875 0 L 7.546875 -58.515625 L 48.921875 -58.515625 L 48.921875 -49.359375 L 19.25 -49.359375 L 19.25 -33.921875 L 46.8125 -33.921875 L 46.8125 -24.671875 L 19.25 -24.671875 L 19.25 -9.25 Z M 49.78125 -9.25 "/></g></g></g><g fill="#ebe9e3" fill-opacity="1"><g transform="translate(916.435437, 186.054494)"><g><path d="M 49.953125 -14.75 C 50.679688 -7.800781 52.09375 -2.882812 54.1875 0 L 41.375 0 C 39.96875 -3.894531 39.007812 -8.25 38.5 -13.0625 C 37.707031 -19.675781 35.078125 -23.148438 30.609375 -23.484375 C 29.535156 -23.546875 28.007812 -23.578125 26.03125 -23.578125 L 19.25 -23.578125 L 19.25 0 L 7.546875 0 L 7.546875 -58.515625 L 28.921875 -58.515625 C 32.140625 -58.515625 34.960938 -58.367188 37.390625 -58.078125 C 42.023438 -57.515625 45.742188 -55.972656 48.546875 -53.453125 C 51.347656 -50.941406 52.75 -47.3125 52.75 -42.5625 C 52.75 -38.894531 51.726562 -35.859375 49.6875 -33.453125 C 47.65625 -31.046875 44.859375 -29.335938 41.296875 -28.328125 C 46.328125 -26.398438 49.210938 -21.875 49.953125 -14.75 Z M 19.25 -32.3125 L 27.296875 -32.3125 C 29.617188 -32.3125 31.203125 -32.335938 32.046875 -32.390625 C 37.648438 -32.898438 40.453125 -35.695312 40.453125 -40.78125 C 40.453125 -43.4375 39.785156 -45.398438 38.453125 -46.671875 C 37.128906 -47.953125 35.222656 -48.757812 32.734375 -49.09375 C 31.378906 -49.269531 29.738281 -49.359375 27.8125 -49.359375 L 19.25 -49.359375 Z M 19.25 -32.3125 "/></g></g></g><g fill="#ebe9e3" fill-opacity="1"><g transform="translate(478.205286, 284.811798)"><g><path d="M 36.296875 -58.078125 C 40.984375 -57.578125 44.78125 -55.785156 47.6875 -52.703125 C 50.601562 -49.617188 52.0625 -45.476562 52.0625 -40.28125 C 52.0625 -35.132812 50.5625 -31.019531 47.5625 -27.9375 C 44.570312 -24.851562 40.816406 -23.03125 36.296875 -22.46875 C 33.859375 -22.1875 31.03125 -22.046875 27.8125 -22.046875 L 19.25 -22.046875 L 19.25 0 L 7.546875 0 L 7.546875 -58.515625 L 27.8125 -58.515625 C 31.09375 -58.515625 33.921875 -58.367188 36.296875 -58.078125 Z M 32.8125 -31.546875 C 37.445312 -32.222656 39.765625 -35.132812 39.765625 -40.28125 C 39.765625 -45.425781 37.445312 -48.335938 32.8125 -49.015625 C 31.507812 -49.179688 29.785156 -49.265625 27.640625 -49.265625 L 19.25 -49.265625 L 19.25 -31.296875 L 27.640625 -31.296875 C 29.785156 -31.296875 31.507812 -31.378906 32.8125 -31.546875 Z M 32.8125 -31.546875 "/></g></g></g><g fill="#ebe9e3" fill-opacity="1"><g transform="translate(562.647397, 284.811798)"><g><path d="M 49.953125 -14.75 C 50.679688 -7.800781 52.09375 -2.882812 54.1875 0 L 41.375 0 C 39.96875 -3.894531 39.007812 -8.25 38.5 -13.0625 C 37.707031 -19.675781 35.078125 -23.148438 30.609375 -23.484375 C 29.535156 -23.546875 28.007812 -23.578125 26.03125 -23.578125 L 19.25 -23.578125 L 19.25 0 L 7.546875 0 L 7.546875 -58.515625 L 28.921875 -58.515625 C 32.140625 -58.515625 34.960938 -58.367188 37.390625 -58.078125 C 42.023438 -57.515625 45.742188 -55.972656 48.546875 -53.453125 C 51.347656 -50.941406 52.75 -47.3125 52.75 -42.5625 C 52.75 -38.894531 51.726562 -35.859375 49.6875 -33.453125 C 47.65625 -31.046875 44.859375 -29.335938 41.296875 -28.328125 C 46.328125 -26.398438 49.210938 -21.875 49.953125 -14.75 Z M 19.25 -32.3125 L 27.296875 -32.3125 C 29.617188 -32.3125 31.203125 -32.335938 32.046875 -32.390625 C 37.648438 -32.898438 40.453125 -35.695312 40.453125 -40.78125 C 40.453125 -43.4375 39.785156 -45.398438 38.453125 -46.671875 C 37.128906 -47.953125 35.222656 -48.757812 32.734375 -49.09375 C 31.378906 -49.269531 29.738281 -49.359375 27.8125 -49.359375 L 19.25 -49.359375 Z M 19.25 -32.3125 "/></g></g></g><g fill="#ebe9e3" fill-opacity="1"><g transform="translate(649.717033, 284.811798)"><g><path d="M 33.234375 -59.703125 C 42.171875 -59.703125 49.222656 -56.941406 54.390625 -51.421875 C 59.566406 -45.910156 62.15625 -38.519531 62.15625 -29.25 C 62.15625 -20.039062 59.566406 -12.664062 54.390625 -7.125 C 49.222656 -1.582031 42.171875 1.1875 33.234375 1.1875 C 24.304688 1.1875 17.253906 -1.582031 12.078125 -7.125 C 6.910156 -12.664062 4.328125 -20.039062 4.328125 -29.25 C 4.328125 -38.519531 6.894531 -45.910156 12.03125 -51.421875 C 17.175781 -56.941406 24.242188 -59.703125 33.234375 -59.703125 Z M 20.984375 -13.265625 C 23.953125 -9.453125 28.035156 -7.546875 33.234375 -7.546875 C 38.441406 -7.546875 42.515625 -9.46875 45.453125 -13.3125 C 48.390625 -17.15625 49.859375 -22.46875 49.859375 -29.25 C 49.859375 -36.09375 48.390625 -41.421875 45.453125 -45.234375 C 42.515625 -49.054688 38.441406 -50.96875 33.234375 -50.96875 C 27.984375 -50.96875 23.882812 -49.054688 20.9375 -45.234375 C 18 -41.421875 16.53125 -36.09375 16.53125 -29.25 C 16.53125 -22.414062 18.015625 -17.085938 20.984375 -13.265625 Z M 20.984375 -13.265625 "/></g></g></g><g fill="#ebe9e3" fill-opacity="1"><g transform="translate(746.195004, 284.811798)"><g><path d="M 35.1875 -58.171875 C 42.425781 -57.328125 48.25 -54.554688 52.65625 -49.859375 C 57.0625 -45.171875 59.265625 -38.554688 59.265625 -30.015625 C 59.265625 -21.421875 57.003906 -14.535156 52.484375 -9.359375 C 47.960938 -4.191406 42.140625 -1.1875 35.015625 -0.34375 C 33.035156 -0.113281 30.550781 0 27.5625 0 L 7.546875 0 L 7.546875 -58.515625 L 27.734375 -58.515625 C 30.722656 -58.515625 33.207031 -58.398438 35.1875 -58.171875 Z M 32.390625 -9.5 C 36.859375 -10.0625 40.390625 -12.125 42.984375 -15.6875 C 45.585938 -19.25 46.890625 -23.96875 46.890625 -29.84375 C 46.890625 -35.5 45.617188 -39.96875 43.078125 -43.25 C 40.535156 -46.53125 37.054688 -48.453125 32.640625 -49.015625 C 30.890625 -49.242188 28.800781 -49.359375 26.375 -49.359375 L 19.25 -49.359375 L 19.25 -9.25 L 26.203125 -9.25 C 29.085938 -9.25 31.148438 -9.332031 32.390625 -9.5 Z M 32.390625 -9.5 "/></g></g></g><g fill="#ebe9e3" fill-opacity="1"><g transform="translate(839.791089, 284.811798)"><g><path d="M 55.03125 -58.515625 L 55.03125 -23.828125 C 55.03125 -21.054688 54.972656 -18.765625 54.859375 -16.953125 C 54.460938 -11.640625 52.300781 -7.285156 48.375 -3.890625 C 44.445312 -0.503906 38.640625 1.1875 30.953125 1.1875 C 23.203125 1.1875 17.363281 -0.503906 13.4375 -3.890625 C 9.507812 -7.285156 7.347656 -11.640625 6.953125 -16.953125 C 6.835938 -18.765625 6.78125 -21.054688 6.78125 -23.828125 L 6.78125 -58.515625 L 18.40625 -58.515625 L 18.40625 -22.640625 C 18.40625 -20.660156 18.460938 -19.25 18.578125 -18.40625 C 18.859375 -14.957031 20.03125 -12.285156 22.09375 -10.390625 C 24.15625 -8.492188 27.109375 -7.546875 30.953125 -7.546875 C 34.734375 -7.546875 37.65625 -8.492188 39.71875 -10.390625 C 41.789062 -12.285156 42.96875 -14.957031 43.25 -18.40625 C 43.363281 -19.25 43.421875 -20.660156 43.421875 -22.640625 L 43.421875 -58.515625 Z M 55.03125 -58.515625 "/></g></g></g><g fill="#ebe9e3" fill-opacity="1"><g transform="translate(930.929179, 284.811798)"><g><path d="M 32.640625 -59.703125 C 40.273438 -59.703125 46.238281 -57.847656 50.53125 -54.140625 C 54.832031 -50.441406 57.296875 -45.566406 57.921875 -39.515625 L 58 -38.671875 L 46.296875 -38.671875 L 46.125 -39.515625 C 44.601562 -47.148438 40.054688 -50.96875 32.484375 -50.96875 C 27.734375 -50.96875 23.914062 -49.054688 21.03125 -45.234375 C 18.144531 -41.421875 16.703125 -36.207031 16.703125 -29.59375 C 16.703125 -22.53125 18.144531 -17.085938 21.03125 -13.265625 C 23.914062 -9.453125 27.675781 -7.546875 32.3125 -7.546875 C 36.039062 -7.546875 39.035156 -8.59375 41.296875 -10.6875 C 43.554688 -12.78125 45.082031 -15.691406 45.875 -19.421875 L 46.046875 -20.265625 L 57.65625 -20.265625 L 57.578125 -19.421875 C 56.953125 -13.085938 54.347656 -8.066406 49.765625 -4.359375 C 45.191406 -0.660156 39.203125 1.1875 31.796875 1.1875 C 23.546875 1.1875 16.90625 -1.523438 11.875 -6.953125 C 6.84375 -12.378906 4.328125 -19.703125 4.328125 -28.921875 C 4.328125 -38.296875 6.984375 -45.769531 12.296875 -51.34375 C 17.609375 -56.914062 24.390625 -59.703125 32.640625 -59.703125 Z M 32.640625 -59.703125 "/></g></g></g><g fill="#ebe9e3" fill-opacity="1"><g transform="translate(1023.423412, 284.811798)"><g><path d="M 53.34375 -49.359375 L 33.5 -49.359375 L 33.5 0 L 21.796875 0 L 21.796875 -49.359375 L 1.953125 -49.359375 L 1.953125 -58.515625 L 53.34375 -58.515625 Z M 53.34375 -49.359375 "/></g></g></g><g fill="#ebe9e3" fill-opacity="1"><g transform="translate(1107.865543, 284.811798)"><g><path d="M 26.96875 -59.703125 C 33.632812 -59.703125 38.734375 -58.03125 42.265625 -54.6875 C 45.804688 -51.351562 47.914062 -46.890625 48.59375 -41.296875 L 36.625 -41.296875 C 36.289062 -44.347656 35.273438 -46.722656 33.578125 -48.421875 C 31.878906 -50.117188 29.535156 -50.96875 26.546875 -50.96875 C 24.109375 -50.96875 22.125 -50.375 20.59375 -49.1875 C 19.070312 -48 18.3125 -46.273438 18.3125 -44.015625 C 18.3125 -41.523438 19.226562 -39.570312 21.0625 -38.15625 C 22.90625 -36.738281 26.144531 -35.492188 30.78125 -34.421875 C 37.164062 -32.953125 41.867188 -30.71875 44.890625 -27.71875 C 47.921875 -24.726562 49.4375 -20.859375 49.4375 -16.109375 C 49.4375 -10.796875 47.34375 -6.582031 43.15625 -3.46875 C 38.976562 -0.363281 33.863281 1.1875 27.8125 1.1875 C 20.6875 1.1875 15.003906 -0.378906 10.765625 -3.515625 C 6.523438 -6.648438 4.125 -11.242188 3.5625 -17.296875 L 15.515625 -17.296875 C 16.140625 -14.191406 17.550781 -11.789062 19.75 -10.09375 C 21.957031 -8.394531 24.585938 -7.546875 27.640625 -7.546875 C 30.359375 -7.546875 32.632812 -8.222656 34.46875 -9.578125 C 36.300781 -10.929688 37.21875 -12.710938 37.21875 -14.921875 C 37.21875 -17.410156 36.328125 -19.414062 34.546875 -20.9375 C 32.773438 -22.46875 29.769531 -23.742188 25.53125 -24.765625 C 18.96875 -26.347656 14.070312 -28.453125 10.84375 -31.078125 C 7.625 -33.703125 6.015625 -37.53125 6.015625 -42.5625 C 6.015625 -47.769531 8.050781 -51.925781 12.125 -55.03125 C 16.195312 -58.144531 21.144531 -59.703125 26.96875 -59.703125 Z M 26.96875 -59.703125 "/></g></g></g><path stroke-linecap="butt" transform="matrix(0.75, 0.000000000000000205, -0.000000000000000205, 0.75, 95.100933, 407.25)" fill="none" stroke-linejoin="miter" d="M 0.000839816 25.500002 L 1666.396757 25.500002 " stroke="#ebe9e3" stroke-width="51" stroke-opacity="1" stroke-miterlimit="4"/><g fill="#ebe9e3" fill-opacity="1"><g transform="translate(95.100933, 639.536543)"><g><path d="M 7.34375 0 L 7.34375 -113.828125 L 114.4375 -113.828125 C 129.726562 -113.828125 140.5625 -111.398438 146.9375 -106.546875 C 153.3125 -101.703125 156.5 -95.507812 156.5 -87.96875 L 156.5 -86.28125 C 156.5 -79.957031 154.457031 -74.929688 150.375 -71.203125 C 146.300781 -67.484375 141.816406 -65.066406 136.921875 -63.953125 C 139.984375 -63.234375 142.8125 -62.257812 145.40625 -61.03125 C 148.007812 -59.8125 150.765625 -58.128906 153.671875 -55.984375 C 156.578125 -53.847656 158.867188 -50.941406 160.546875 -47.265625 C 162.234375 -43.597656 163.078125 -39.421875 163.078125 -34.734375 L 163.078125 -32.890625 C 163.078125 -10.960938 147.066406 0 115.046875 0 Z M 101.28125 -87.96875 L 50.796875 -87.96875 L 50.796875 -71.90625 L 101.28125 -71.90625 C 109.03125 -71.90625 112.90625 -74.554688 112.90625 -79.859375 L 112.90625 -80.15625 C 112.90625 -85.363281 109.03125 -87.96875 101.28125 -87.96875 Z M 104.03125 -46.359375 L 50.796875 -46.359375 L 50.796875 -26.765625 L 104.03125 -26.765625 C 113 -26.765625 117.484375 -30.03125 117.484375 -36.5625 L 117.484375 -37.015625 C 117.484375 -43.242188 113 -46.359375 104.03125 -46.359375 Z M 104.03125 -46.359375 "/></g></g></g><g fill="#ebe9e3" fill-opacity="1"><g transform="translate(269.202665, 639.536543)"><g><path d="M 6.125 -59.515625 L 6.125 -113.828125 L 49.71875 -113.828125 L 49.71875 -62.875 C 49.71875 -59 50.226562 -55.40625 51.25 -52.09375 C 52.269531 -48.78125 53.953125 -45.566406 56.296875 -42.453125 C 58.640625 -39.335938 62.234375 -36.863281 67.078125 -35.03125 C 71.921875 -33.195312 77.757812 -32.28125 84.59375 -32.28125 C 91.332031 -32.28125 97.097656 -33.195312 101.890625 -35.03125 C 106.679688 -36.863281 110.273438 -39.335938 112.671875 -42.453125 C 115.066406 -45.566406 116.773438 -48.78125 117.796875 -52.09375 C 118.816406 -55.40625 119.328125 -59 119.328125 -62.875 L 119.328125 -113.828125 L 162.78125 -113.828125 L 162.78125 -59.515625 C 162.78125 -54.410156 162.269531 -49.410156 161.25 -44.515625 C 160.226562 -39.617188 158.082031 -34.265625 154.8125 -28.453125 C 151.550781 -22.640625 147.316406 -17.59375 142.109375 -13.3125 C 136.910156 -9.03125 129.617188 -5.4375 120.234375 -2.53125 C 110.859375 0.375 100.050781 1.828125 87.8125 1.828125 L 81.6875 1.828125 C 69.039062 1.828125 57.972656 0.375 48.484375 -2.53125 C 39.003906 -5.4375 31.640625 -9.03125 26.390625 -13.3125 C 21.140625 -17.59375 16.90625 -22.664062 13.6875 -28.53125 C 10.476562 -34.394531 8.414062 -39.722656 7.5 -44.515625 C 6.582031 -49.304688 6.125 -54.304688 6.125 -59.515625 Z M 6.125 -59.515625 "/></g></g></g><g fill="#ebe9e3" fill-opacity="1"><g transform="translate(447.282122, 639.536543)"><g><path d="M 85.515625 2.140625 L 71.59375 2.140625 C 25.289062 2.140625 2.140625 -11.320312 2.140625 -38.25 L 2.140625 -39.78125 L 49.875 -39.78125 C 50.6875 -29.070312 60.171875 -23.71875 78.328125 -23.71875 L 79.703125 -23.71875 C 85.515625 -23.71875 90.359375 -23.992188 94.234375 -24.546875 C 98.109375 -25.109375 100.960938 -25.925781 102.796875 -27 C 104.640625 -28.070312 105.890625 -29.191406 106.546875 -30.359375 C 107.210938 -31.535156 107.546875 -32.890625 107.546875 -34.421875 L 107.546875 -34.578125 C 107.546875 -36.710938 107.007812 -38.414062 105.9375 -39.6875 C 104.863281 -40.96875 102.3125 -42.09375 98.28125 -43.0625 C 94.257812 -44.03125 88.425781 -44.617188 80.78125 -44.828125 L 59.65625 -45.4375 C 22.4375 -46.457031 3.828125 -57.878906 3.828125 -79.703125 L 3.828125 -81.078125 C 3.828125 -85.054688 4.382812 -88.648438 5.5 -91.859375 C 6.625 -95.078125 8.664062 -98.210938 11.625 -101.265625 C 14.582031 -104.328125 18.457031 -106.878906 23.25 -108.921875 C 28.039062 -110.960938 34.335938 -112.617188 42.140625 -113.890625 C 49.941406 -115.171875 58.992188 -115.8125 69.296875 -115.8125 L 82.921875 -115.8125 C 129.015625 -115.8125 152.0625 -103.828125 152.0625 -79.859375 L 152.0625 -78.640625 L 104.796875 -78.640625 C 103.878906 -86.691406 94.695312 -90.71875 77.25 -90.71875 L 75.734375 -90.71875 C 68.585938 -90.71875 63.078125 -90.285156 59.203125 -89.421875 C 55.328125 -88.554688 52.929688 -87.585938 52.015625 -86.515625 C 51.097656 -85.441406 50.640625 -84.039062 50.640625 -82.3125 L 50.640625 -82.15625 C 50.640625 -80.414062 51.171875 -78.984375 52.234375 -77.859375 C 53.304688 -76.742188 55.726562 -75.75 59.5 -74.875 C 63.28125 -74.007812 68.585938 -73.53125 75.421875 -73.4375 L 95.921875 -72.96875 C 117.441406 -72.363281 132.84375 -69.382812 142.125 -64.03125 C 151.40625 -58.675781 156.046875 -50.234375 156.046875 -38.703125 L 156.046875 -36.5625 C 156.046875 -32.382812 155.535156 -28.585938 154.515625 -25.171875 C 153.492188 -21.753906 151.453125 -18.285156 148.390625 -14.765625 C 145.335938 -11.242188 141.285156 -8.285156 136.234375 -5.890625 C 131.179688 -3.492188 124.347656 -1.554688 115.734375 -0.078125 C 107.117188 1.398438 97.046875 2.140625 85.515625 2.140625 Z M 85.515625 2.140625 "/></g></g></g><g fill="#ebe9e3" fill-opacity="1"><g transform="translate(614.958341, 639.536543)"><g><path d="M 50.640625 -113.828125 L 50.640625 0 L 7.34375 0 L 7.34375 -113.828125 Z M 50.640625 -113.828125 "/></g></g></g><g fill="#ebe9e3" fill-opacity="1"><g transform="translate(682.120947, 639.536543)"><g><path d="M 7.34375 -113.828125 L 56 -113.828125 L 122.078125 -49.109375 L 122.078125 -113.828125 L 165.21875 -113.828125 L 165.21875 0 L 121.78125 0 L 50.484375 -69 L 50.484375 0 L 7.34375 0 Z M 7.34375 -113.828125 "/></g></g></g><g fill="#ebe9e3" fill-opacity="1"><g transform="translate(863.872128, 639.536543)"><g><path d="M 7.34375 -113.828125 L 133.25 -113.828125 L 133.25 -85.984375 L 50.171875 -85.984375 L 50.171875 -71.75 L 131.5625 -71.75 L 131.5625 -44.0625 L 50.171875 -44.0625 L 50.171875 -28.453125 L 134.46875 -28.453125 L 134.46875 0 L 7.34375 0 Z M 7.34375 -113.828125 "/></g></g></g><g fill="#ebe9e3" fill-opacity="1"><g transform="translate(1012.730706, 639.536543)"><g><path d="M 85.515625 2.140625 L 71.59375 2.140625 C 25.289062 2.140625 2.140625 -11.320312 2.140625 -38.25 L 2.140625 -39.78125 L 49.875 -39.78125 C 50.6875 -29.070312 60.171875 -23.71875 78.328125 -23.71875 L 79.703125 -23.71875 C 85.515625 -23.71875 90.359375 -23.992188 94.234375 -24.546875 C 98.109375 -25.109375 100.960938 -25.925781 102.796875 -27 C 104.640625 -28.070312 105.890625 -29.191406 106.546875 -30.359375 C 107.210938 -31.535156 107.546875 -32.890625 107.546875 -34.421875 L 107.546875 -34.578125 C 107.546875 -36.710938 107.007812 -38.414062 105.9375 -39.6875 C 104.863281 -40.96875 102.3125 -42.09375 98.28125 -43.0625 C 94.257812 -44.03125 88.425781 -44.617188 80.78125 -44.828125 L 59.65625 -45.4375 C 22.4375 -46.457031 3.828125 -57.878906 3.828125 -79.703125 L 3.828125 -81.078125 C 3.828125 -85.054688 4.382812 -88.648438 5.5 -91.859375 C 6.625 -95.078125 8.664062 -98.210938 11.625 -101.265625 C 14.582031 -104.328125 18.457031 -106.878906 23.25 -108.921875 C 28.039062 -110.960938 34.335938 -112.617188 42.140625 -113.890625 C 49.941406 -115.171875 58.992188 -115.8125 69.296875 -115.8125 L 82.921875 -115.8125 C 129.015625 -115.8125 152.0625 -103.828125 152.0625 -79.859375 L 152.0625 -78.640625 L 104.796875 -78.640625 C 103.878906 -86.691406 94.695312 -90.71875 77.25 -90.71875 L 75.734375 -90.71875 C 68.585938 -90.71875 63.078125 -90.285156 59.203125 -89.421875 C 55.328125 -88.554688 52.929688 -87.585938 52.015625 -86.515625 C 51.097656 -85.441406 50.640625 -84.039062 50.640625 -82.3125 L 50.640625 -82.15625 C 50.640625 -80.414062 51.171875 -78.984375 52.234375 -77.859375 C 53.304688 -76.742188 55.726562 -75.75 59.5 -74.875 C 63.28125 -74.007812 68.585938 -73.53125 75.421875 -73.4375 L 95.921875 -72.96875 C 117.441406 -72.363281 132.84375 -69.382812 142.125 -64.03125 C 151.40625 -58.675781 156.046875 -50.234375 156.046875 -38.703125 L 156.046875 -36.5625 C 156.046875 -32.382812 155.535156 -28.585938 154.515625 -25.171875 C 153.492188 -21.753906 151.453125 -18.285156 148.390625 -14.765625 C 145.335938 -11.242188 141.285156 -8.285156 136.234375 -5.890625 C 131.179688 -3.492188 124.347656 -1.554688 115.734375 -0.078125 C 107.117188 1.398438 97.046875 2.140625 85.515625 2.140625 Z M 85.515625 2.140625 "/></g></g></g><g fill="#ebe9e3" fill-opacity="1"><g transform="translate(1180.406905, 639.536543)"><g><path d="M 85.515625 2.140625 L 71.59375 2.140625 C 25.289062 2.140625 2.140625 -11.320312 2.140625 -38.25 L 2.140625 -39.78125 L 49.875 -39.78125 C 50.6875 -29.070312 60.171875 -23.71875 78.328125 -23.71875 L 79.703125 -23.71875 C 85.515625 -23.71875 90.359375 -23.992188 94.234375 -24.546875 C 98.109375 -25.109375 100.960938 -25.925781 102.796875 -27 C 104.640625 -28.070312 105.890625 -29.191406 106.546875 -30.359375 C 107.210938 -31.535156 107.546875 -32.890625 107.546875 -34.421875 L 107.546875 -34.578125 C 107.546875 -36.710938 107.007812 -38.414062 105.9375 -39.6875 C 104.863281 -40.96875 102.3125 -42.09375 98.28125 -43.0625 C 94.257812 -44.03125 88.425781 -44.617188 80.78125 -44.828125 L 59.65625 -45.4375 C 22.4375 -46.457031 3.828125 -57.878906 3.828125 -79.703125 L 3.828125 -81.078125 C 3.828125 -85.054688 4.382812 -88.648438 5.5 -91.859375 C 6.625 -95.078125 8.664062 -98.210938 11.625 -101.265625 C 14.582031 -104.328125 18.457031 -106.878906 23.25 -108.921875 C 28.039062 -110.960938 34.335938 -112.617188 42.140625 -113.890625 C 49.941406 -115.171875 58.992188 -115.8125 69.296875 -115.8125 L 82.921875 -115.8125 C 129.015625 -115.8125 152.0625 -103.828125 152.0625 -79.859375 L 152.0625 -78.640625 L 104.796875 -78.640625 C 103.878906 -86.691406 94.695312 -90.71875 77.25 -90.71875 L 75.734375 -90.71875 C 68.585938 -90.71875 63.078125 -90.285156 59.203125 -89.421875 C 55.328125 -88.554688 52.929688 -87.585938 52.015625 -86.515625 C 51.097656 -85.441406 50.640625 -84.039062 50.640625 -82.3125 L 50.640625 -82.15625 C 50.640625 -80.414062 51.171875 -78.984375 52.234375 -77.859375 C 53.304688 -76.742188 55.726562 -75.75 59.5 -74.875 C 63.28125 -74.007812 68.585938 -73.53125 75.421875 -73.4375 L 95.921875 -72.96875 C 117.441406 -72.363281 132.84375 -69.382812 142.125 -64.03125 C 151.40625 -58.675781 156.046875 -50.234375 156.046875 -38.703125 L 156.046875 -36.5625 C 156.046875 -32.382812 155.535156 -28.585938 154.515625 -25.171875 C 153.492188 -21.753906 151.453125 -18.285156 148.390625 -14.765625 C 145.335938 -11.242188 141.285156 -8.285156 136.234375 -5.890625 C 131.179688 -3.492188 124.347656 -1.554688 115.734375 -0.078125 C 107.117188 1.398438 97.046875 2.140625 85.515625 2.140625 Z M 85.515625 2.140625 "/></g></g></g></svg>