<svg xmlns="http://www.w3.org/2000/svg" xmlns:xlink="http://www.w3.org/1999/xlink" width="1920" zoomAndPan="magnify" viewBox="0 0 1440 809.999993" height="1080" preserveAspectRatio="xMidYMid meet" version="1.0"><defs><g/><clipPath id="3af25c9e31"><path d="M 297.210938 276.035156 L 432.378906 276.035156 L 432.378906 302.40625 L 297.210938 302.40625 Z M 297.210938 276.035156 " clip-rule="nonzero"/></clipPath><clipPath id="8b26982bfa"><path d="M 299.460938 276.035156 L 430.128906 276.035156 C 430.726562 276.035156 431.300781 276.273438 431.722656 276.695312 C 432.144531 277.117188 432.378906 277.6875 432.378906 278.285156 L 432.378906 300.15625 C 432.378906 300.753906 432.144531 301.328125 431.722656 301.75 C 431.300781 302.171875 430.726562 302.40625 430.128906 302.40625 L 299.460938 302.40625 C 298.863281 302.40625 298.292969 302.171875 297.871094 301.75 C 297.449219 301.328125 297.210938 300.753906 297.210938 300.15625 L 297.210938 278.285156 C 297.210938 277.6875 297.449219 277.117188 297.871094 276.695312 C 298.292969 276.273438 298.863281 276.035156 299.460938 276.035156 Z M 299.460938 276.035156 " clip-rule="nonzero"/></clipPath></defs><g clip-path="url(#3af25c9e31)"><g clip-path="url(#8b26982bfa)"><path fill="#2b2b2b" d="M 297.210938 276.035156 L 432.378906 276.035156 L 432.378906 302.40625 L 297.210938 302.40625 Z M 297.210938 276.035156 " fill-opacity="1" fill-rule="nonzero"/></g></g><g fill="#2b2b2b" fill-opacity="1"><g transform="translate(298.184787, 301.916524)"><g><path d="M 73.917969 -25.496094 L 0 -25.496094 L 0 -1.539062 C 0 -0.855469 0.855469 0 1.882812 0 L 73.917969 0 C 75.117188 0 75.800781 -0.855469 75.800781 -1.539062 L 75.800781 -23.785156 C 75.800781 -24.640625 75.117188 -25.496094 73.917969 -25.496094 Z M 26.179688 -51.675781 L 26.179688 -135.34375 C 26.179688 -136.027344 25.496094 -136.882812 24.46875 -136.882812 L 1.882812 -136.882812 C 0.855469 -136.882812 0 -136.027344 0 -135.34375 L 0 -51.675781 Z M 26.179688 -51.675781 "/></g></g></g><g fill="#2b2b2b" fill-opacity="1"><g transform="translate(343.261571, 252.169174)"><g><path d="M 48.714844 -144.878906 L 1.8125 -144.878906 C 0.90625 -144.878906 0 -143.972656 0 -143.246094 L 0 -118.257812 L 48.714844 -118.257812 C 51.976562 -118.257812 70.085938 -117.351562 70.085938 -101.414062 C 70.085938 -85.476562 52.335938 -85.117188 48.714844 -85.117188 L 0 -85.117188 L 0 -1.628906 C 0 -0.90625 0.90625 0 1.8125 0 L 25.355469 0 C 26.621094 0 27.164062 -0.90625 27.164062 -1.628906 L 27.164062 -58.3125 L 48.714844 -58.3125 C 52.15625 -58.3125 97.609375 -58.855469 97.609375 -101.414062 C 97.609375 -143.972656 54.511719 -144.878906 48.714844 -144.878906 Z M 48.714844 -144.878906 "/></g></g></g><g fill="#2b2b2b" fill-opacity="1"><g transform="translate(478.205286, 186.054494)"><g><path d="M 49.78125 -9.75 L 49.78125 0 L 7.546875 0 L 7.546875 -58.515625 L 19.25 -58.515625 L 19.25 -9.75 Z M 49.78125 -9.75 "/></g></g></g><g fill="#2b2b2b" fill-opacity="1"><g transform="translate(561.037041, 186.054494)"><g><path d="M 49.78125 -9.25 L 49.78125 0 L 7.546875 0 L 7.546875 -58.515625 L 48.921875 -58.515625 L 48.921875 -49.359375 L 19.25 -49.359375 L 19.25 -33.921875 L 46.8125 -33.921875 L 46.8125 -24.671875 L 19.25 -24.671875 L 19.25 -9.25 Z M 49.78125 -9.25 "/></g></g></g><g fill="#2b2b2b" fill-opacity="1"><g transform="translate(644.885857, 186.054494)"><g><path d="M 35.1875 -58.171875 C 42.425781 -57.328125 48.25 -54.554688 52.65625 -49.859375 C 57.0625 -45.171875 59.265625 -38.554688 59.265625 -30.015625 C 59.265625 -21.421875 57.003906 -14.535156 52.484375 -9.359375 C 47.960938 -4.191406 42.140625 -1.1875 35.015625 -0.34375 C 33.035156 -0.113281 30.550781 0 27.5625 0 L 7.546875 0 L 7.546875 -58.515625 L 27.734375 -58.515625 C 30.722656 -58.515625 33.207031 -58.398438 35.1875 -58.171875 Z M 32.390625 -9.5 C 36.859375 -10.0625 40.390625 -12.125 42.984375 -15.6875 C 45.585938 -19.25 46.890625 -23.96875 46.890625 -29.84375 C 46.890625 -35.5 45.617188 -39.96875 43.078125 -43.25 C 40.535156 -46.53125 37.054688 -48.453125 32.640625 -49.015625 C 30.890625 -49.242188 28.800781 -49.359375 26.375 -49.359375 L 19.25 -49.359375 L 19.25 -9.25 L 26.203125 -9.25 C 29.085938 -9.25 31.148438 -9.332031 32.390625 -9.5 Z M 32.390625 -9.5 "/></g></g></g><g fill="#2b2b2b" fill-opacity="1"><g transform="translate(738.481957, 186.054494)"><g><path d="M 34.34375 -29.84375 L 57.921875 -29.84375 L 57.921875 0 L 48.5 0 L 47.734375 -9.5 L 45.109375 -3.5625 C 41.890625 -0.394531 37.140625 1.1875 30.859375 1.1875 C 22.722656 1.1875 16.265625 -1.507812 11.484375 -6.90625 C 6.710938 -12.3125 4.328125 -19.648438 4.328125 -28.921875 C 4.328125 -38.296875 7.039062 -45.769531 12.46875 -51.34375 C 17.894531 -56.914062 24.789062 -59.703125 33.15625 -59.703125 C 40.789062 -59.703125 46.753906 -57.847656 51.046875 -54.140625 C 55.347656 -50.441406 57.804688 -45.566406 58.421875 -39.515625 L 58.515625 -38.671875 L 46.8125 -38.671875 L 46.640625 -39.515625 C 45.109375 -47.148438 40.554688 -50.96875 32.984375 -50.96875 C 28.179688 -50.96875 24.265625 -49.046875 21.234375 -45.203125 C 18.210938 -41.359375 16.703125 -36.15625 16.703125 -29.59375 C 16.703125 -22.53125 18.171875 -17.085938 21.109375 -13.265625 C 24.054688 -9.453125 27.898438 -7.546875 32.640625 -7.546875 C 36.429688 -7.546875 39.582031 -8.703125 42.09375 -11.015625 C 44.613281 -13.335938 46.15625 -16.5625 46.71875 -20.6875 L 34.34375 -20.6875 Z M 34.34375 -29.84375 "/></g></g></g><g fill="#2b2b2b" fill-opacity="1"><g transform="translate(832.586627, 186.054494)"><g><path d="M 49.78125 -9.25 L 49.78125 0 L 7.546875 0 L 7.546875 -58.515625 L 48.921875 -58.515625 L 48.921875 -49.359375 L 19.25 -49.359375 L 19.25 -33.921875 L 46.8125 -33.921875 L 46.8125 -24.671875 L 19.25 -24.671875 L 19.25 -9.25 Z M 49.78125 -9.25 "/></g></g></g><g fill="#2b2b2b" fill-opacity="1"><g transform="translate(916.435437, 186.054494)"><g><path d="M 49.953125 -14.75 C 50.679688 -7.800781 52.09375 -2.882812 54.1875 0 L 41.375 0 C 39.96875 -3.894531 39.007812 -8.25 38.5 -13.0625 C 37.707031 -19.675781 35.078125 -23.148438 30.609375 -23.484375 C 29.535156 -23.546875 28.007812 -23.578125 26.03125 -23.578125 L 19.25 -23.578125 L 19.25 0 L 7.546875 0 L 7.546875 -58.515625 L 28.921875 -58.515625 C 32.140625 -58.515625 34.960938 -58.367188 37.390625 -58.078125 C 42.023438 -57.515625 45.742188 -55.972656 48.546875 -53.453125 C 51.347656 -50.941406 52.75 -47.3125 52.75 -42.5625 C 52.75 -38.894531 51.726562 -35.859375 49.6875 -33.453125 C 47.65625 -31.046875 44.859375 -29.335938 41.296875 -28.328125 C 46.328125 -26.398438 49.210938 -21.875 49.953125 -14.75 Z M 19.25 -32.3125 L 27.296875 -32.3125 C 29.617188 -32.3125 31.203125 -32.335938 32.046875 -32.390625 C 37.648438 -32.898438 40.453125 -35.695312 40.453125 -40.78125 C 40.453125 -43.4375 39.785156 -45.398438 38.453125 -46.671875 C 37.128906 -47.953125 35.222656 -48.757812 32.734375 -49.09375 C 31.378906 -49.269531 29.738281 -49.359375 27.8125 -49.359375 L 19.25 -49.359375 Z M 19.25 -32.3125 "/></g></g></g><g fill="#2b2b2b" fill-opacity="1"><g transform="translate(478.205286, 284.811798)"><g><path d="M 36.296875 -58.078125 C 40.984375 -57.578125 44.78125 -55.785156 47.6875 -52.703125 C 50.601562 -49.617188 52.0625 -45.476562 52.0625 -40.28125 C 52.0625 -35.132812 50.5625 -31.019531 47.5625 -27.9375 C 44.570312 -24.851562 40.816406 -23.03125 36.296875 -22.46875 C 33.859375 -22.1875 31.03125 -22.046875 27.8125 -22.046875 L 19.25 -22.046875 L 19.25 0 L 7.546875 0 L 7.546875 -58.515625 L 27.8125 -58.515625 C 31.09375 -58.515625 33.921875 -58.367188 36.296875 -58.078125 Z M 32.8125 -31.546875 C 37.445312 -32.222656 39.765625 -35.132812 39.765625 -40.28125 C 39.765625 -45.425781 37.445312 -48.335938 32.8125 -49.015625 C 31.507812 -49.179688 29.785156 -49.265625 27.640625 -49.265625 L 19.25 -49.265625 L 19.25 -31.296875 L 27.640625 -31.296875 C 29.785156 -31.296875 31.507812 -31.378906 32.8125 -31.546875 Z M 32.8125 -31.546875 "/></g></g></g><g fill="#2b2b2b" fill-opacity="1"><g transform="translate(562.647397, 284.811798)"><g><path d="M 49.953125 -14.75 C 50.679688 -7.800781 52.09375 -2.882812 54.1875 0 L 41.375 0 C 39.96875 -3.894531 39.007812 -8.25 38.5 -13.0625 C 37.707031 -19.675781 35.078125 -23.148438 30.609375 -23.484375 C 29.535156 -23.546875 28.007812 -23.578125 26.03125 -23.578125 L 19.25 -23.578125 L 19.25 0 L 7.546875 0 L 7.546875 -58.515625 L 28.921875 -58.515625 C 32.140625 -58.515625 34.960938 -58.367188 37.390625 -58.078125 C 42.023438 -57.515625 45.742188 -55.972656 48.546875 -53.453125 C 51.347656 -50.941406 52.75 -47.3125 52.75 -42.5625 C 52.75 -38.894531 51.726562 -35.859375 49.6875 -33.453125 C 47.65625 -31.046875 44.859375 -29.335938 41.296875 -28.328125 C 46.328125 -26.398438 49.210938 -21.875 49.953125 -14.75 Z M 19.25 -32.3125 L 27.296875 -32.3125 C 29.617188 -32.3125 31.203125 -32.335938 32.046875 -32.390625 C 37.648438 -32.898438 40.453125 -35.695312 40.453125 -40.78125 C 40.453125 -43.4375 39.785156 -45.398438 38.453125 -46.671875 C 37.128906 -47.953125 35.222656 -48.757812 32.734375 -49.09375 C 31.378906 -49.269531 29.738281 -49.359375 27.8125 -49.359375 L 19.25 -49.359375 Z M 19.25 -32.3125 "/></g></g></g><g fill="#2b2b2b" fill-opacity="1"><g transform="translate(649.717033, 284.811798)"><g><path d="M 33.234375 -59.703125 C 42.171875 -59.703125 49.222656 -56.941406 54.390625 -51.421875 C 59.566406 -45.910156 62.15625 -38.519531 62.15625 -29.25 C 62.15625 -20.039062 59.566406 -12.664062 54.390625 -7.125 C 49.222656 -1.582031 42.171875 1.1875 33.234375 1.1875 C 24.304688 1.1875 17.253906 -1.582031 12.078125 -7.125 C 6.910156 -12.664062 4.328125 -20.039062 4.328125 -29.25 C 4.328125 -38.519531 6.894531 -45.910156 12.03125 -51.421875 C 17.175781 -56.941406 24.242188 -59.703125 33.234375 -59.703125 Z M 20.984375 -13.265625 C 23.953125 -9.453125 28.035156 -7.546875 33.234375 -7.546875 C 38.441406 -7.546875 42.515625 -9.46875 45.453125 -13.3125 C 48.390625 -17.15625 49.859375 -22.46875 49.859375 -29.25 C 49.859375 -36.09375 48.390625 -41.421875 45.453125 -45.234375 C 42.515625 -49.054688 38.441406 -50.96875 33.234375 -50.96875 C 27.984375 -50.96875 23.882812 -49.054688 20.9375 -45.234375 C 18 -41.421875 16.53125 -36.09375 16.53125 -29.25 C 16.53125 -22.414062 18.015625 -17.085938 20.984375 -13.265625 Z M 20.984375 -13.265625 "/></g></g></g><g fill="#2b2b2b" fill-opacity="1"><g transform="translate(746.195004, 284.811798)"><g><path d="M 35.1875 -58.171875 C 42.425781 -57.328125 48.25 -54.554688 52.65625 -49.859375 C 57.0625 -45.171875 59.265625 -38.554688 59.265625 -30.015625 C 59.265625 -21.421875 57.003906 -14.535156 52.484375 -9.359375 C 47.960938 -4.191406 42.140625 -1.1875 35.015625 -0.34375 C 33.035156 -0.113281 30.550781 0 27.5625 0 L 7.546875 0 L 7.546875 -58.515625 L 27.734375 -58.515625 C 30.722656 -58.515625 33.207031 -58.398438 35.1875 -58.171875 Z M 32.390625 -9.5 C 36.859375 -10.0625 40.390625 -12.125 42.984375 -15.6875 C 45.585938 -19.25 46.890625 -23.96875 46.890625 -29.84375 C 46.890625 -35.5 45.617188 -39.96875 43.078125 -43.25 C 40.535156 -46.53125 37.054688 -48.453125 32.640625 -49.015625 C 30.890625 -49.242188 28.800781 -49.359375 26.375 -49.359375 L 19.25 -49.359375 L 19.25 -9.25 L 26.203125 -9.25 C 29.085938 -9.25 31.148438 -9.332031 32.390625 -9.5 Z M 32.390625 -9.5 "/></g></g></g><g fill="#2b2b2b" fill-opacity="1"><g transform="translate(839.791089, 284.811798)"><g><path d="M 55.03125 -58.515625 L 55.03125 -23.828125 C 55.03125 -21.054688 54.972656 -18.765625 54.859375 -16.953125 C 54.460938 -11.640625 52.300781 -7.285156 48.375 -3.890625 C 44.445312 -0.503906 38.640625 1.1875 30.953125 1.1875 C 23.203125 1.1875 17.363281 -0.503906 13.4375 -3.890625 C 9.507812 -7.285156 7.347656 -11.640625 6.953125 -16.953125 C 6.835938 -18.765625 6.78125 -21.054688 6.78125 -23.828125 L 6.78125 -58.515625 L 18.40625 -58.515625 L 18.40625 -22.640625 C 18.40625 -20.660156 18.460938 -19.25 18.578125 -18.40625 C 18.859375 -14.957031 20.03125 -12.285156 22.09375 -10.390625 C 24.15625 -8.492188 27.109375 -7.546875 30.953125 -7.546875 C 34.734375 -7.546875 37.65625 -8.492188 39.71875 -10.390625 C 41.789062 -12.285156 42.96875 -14.957031 43.25 -18.40625 C 43.363281 -19.25 43.421875 -20.660156 43.421875 -22.640625 L 43.421875 -58.515625 Z M 55.03125 -58.515625 "/></g></g></g><g fill="#2b2b2b" fill-opacity="1"><g transform="translate(930.929179, 284.811798)"><g><path d="M 32.640625 -59.703125 C 40.273438 -59.703125 46.238281 -57.847656 50.53125 -54.140625 C 54.832031 -50.441406 57.296875 -45.566406 57.921875 -39.515625 L 58 -38.671875 L 46.296875 -38.671875 L 46.125 -39.515625 C 44.601562 -47.148438 40.054688 -50.96875 32.484375 -50.96875 C 27.734375 -50.96875 23.914062 -49.054688 21.03125 -45.234375 C 18.144531 -41.421875 16.703125 -36.207031 16.703125 -29.59375 C 16.703125 -22.53125 18.144531 -17.085938 21.03125 -13.265625 C 23.914062 -9.453125 27.675781 -7.546875 32.3125 -7.546875 C 36.039062 -7.546875 39.035156 -8.59375 41.296875 -10.6875 C 43.554688 -12.78125 45.082031 -15.691406 45.875 -19.421875 L 46.046875 -20.265625 L 57.65625 -20.265625 L 57.578125 -19.421875 C 56.953125 -13.085938 54.347656 -8.066406 49.765625 -4.359375 C 45.191406 -0.660156 39.203125 1.1875 31.796875 1.1875 C 23.546875 1.1875 16.90625 -1.523438 11.875 -6.953125 C 6.84375 -12.378906 4.328125 -19.703125 4.328125 -28.921875 C 4.328125 -38.296875 6.984375 -45.769531 12.296875 -51.34375 C 17.609375 -56.914062 24.390625 -59.703125 32.640625 -59.703125 Z M 32.640625 -59.703125 "/></g></g></g><g fill="#2b2b2b" fill-opacity="1"><g transform="translate(1023.423412, 284.811798)"><g><path d="M 53.34375 -49.359375 L 33.5 -49.359375 L 33.5 0 L 21.796875 0 L 21.796875 -49.359375 L 1.953125 -49.359375 L 1.953125 -58.515625 L 53.34375 -58.515625 Z M 53.34375 -49.359375 "/></g></g></g><g fill="#2b2b2b" fill-opacity="1"><g transform="translate(1107.865543, 284.811798)"><g><path d="M 26.96875 -59.703125 C 33.632812 -59.703125 38.734375 -58.03125 42.265625 -54.6875 C 45.804688 -51.351562 47.914062 -46.890625 48.59375 -41.296875 L 36.625 -41.296875 C 36.289062 -44.347656 35.273438 -46.722656 33.578125 -48.421875 C 31.878906 -50.117188 29.535156 -50.96875 26.546875 -50.96875 C 24.109375 -50.96875 22.125 -50.375 20.59375 -49.1875 C 19.070312 -48 18.3125 -46.273438 18.3125 -44.015625 C 18.3125 -41.523438 19.226562 -39.570312 21.0625 -38.15625 C 22.90625 -36.738281 26.144531 -35.492188 30.78125 -34.421875 C 37.164062 -32.953125 41.867188 -30.71875 44.890625 -27.71875 C 47.921875 -24.726562 49.4375 -20.859375 49.4375 -16.109375 C 49.4375 -10.796875 47.34375 -6.582031 43.15625 -3.46875 C 38.976562 -0.363281 33.863281 1.1875 27.8125 1.1875 C 20.6875 1.1875 15.003906 -0.378906 10.765625 -3.515625 C 6.523438 -6.648438 4.125 -11.242188 3.5625 -17.296875 L 15.515625 -17.296875 C 16.140625 -14.191406 17.550781 -11.789062 19.75 -10.09375 C 21.957031 -8.394531 24.585938 -7.546875 27.640625 -7.546875 C 30.359375 -7.546875 32.632812 -8.222656 34.46875 -9.578125 C 36.300781 -10.929688 37.21875 -12.710938 37.21875 -14.921875 C 37.21875 -17.410156 36.328125 -19.414062 34.546875 -20.9375 C 32.773438 -22.46875 29.769531 -23.742188 25.53125 -24.765625 C 18.96875 -26.347656 14.070312 -28.453125 10.84375 -31.078125 C 7.625 -33.703125 6.015625 -37.53125 6.015625 -42.5625 C 6.015625 -47.769531 8.050781 -51.925781 12.125 -55.03125 C 16.195312 -58.144531 21.144531 -59.703125 26.96875 -59.703125 Z M 26.96875 -59.703125 "/></g></g></g><g fill="#2b2b2b" fill-opacity="1"><g transform="translate(87.203579, 719.422433)"><g><path d="M 129.8125 3.25 L 108.671875 3.25 C 38.390625 3.25 3.25 -17.179688 3.25 -58.046875 L 3.25 -60.375 L 75.703125 -60.375 C 76.941406 -44.125 91.335938 -36 118.890625 -36 L 120.984375 -36 C 129.804688 -36 137.160156 -36.421875 143.046875 -37.265625 C 148.929688 -38.117188 153.265625 -39.359375 156.046875 -40.984375 C 158.835938 -42.609375 160.734375 -44.3125 161.734375 -46.09375 C 162.742188 -47.875 163.25 -49.925781 163.25 -52.25 L 163.25 -52.484375 C 163.25 -55.734375 162.4375 -58.320312 160.8125 -60.25 C 159.1875 -62.1875 155.316406 -63.890625 149.203125 -65.359375 C 143.085938 -66.835938 134.222656 -67.734375 122.609375 -68.046875 L 90.5625 -68.96875 C 34.0625 -70.519531 5.8125 -87.859375 5.8125 -120.984375 L 5.8125 -123.078125 C 5.8125 -129.109375 6.660156 -134.5625 8.359375 -139.4375 C 10.066406 -144.320312 13.164062 -149.085938 17.65625 -153.734375 C 22.144531 -158.378906 28.023438 -162.25 35.296875 -165.34375 C 42.578125 -168.4375 52.132812 -170.953125 63.96875 -172.890625 C 75.8125 -174.828125 89.550781 -175.796875 105.1875 -175.796875 L 125.859375 -175.796875 C 195.835938 -175.796875 230.828125 -157.601562 230.828125 -121.21875 L 230.828125 -119.359375 L 159.0625 -119.359375 C 157.675781 -131.585938 143.742188 -137.703125 117.265625 -137.703125 L 114.953125 -137.703125 C 104.109375 -137.703125 95.742188 -137.046875 89.859375 -135.734375 C 83.984375 -134.421875 80.347656 -132.945312 78.953125 -131.3125 C 77.554688 -129.6875 76.859375 -127.5625 76.859375 -124.9375 L 76.859375 -124.703125 C 76.859375 -122.066406 77.671875 -119.894531 79.296875 -118.1875 C 80.921875 -116.488281 84.597656 -114.984375 90.328125 -113.671875 C 96.054688 -112.359375 104.109375 -111.625 114.484375 -111.46875 L 145.59375 -110.765625 C 178.257812 -109.835938 201.632812 -105.304688 215.71875 -97.171875 C 229.8125 -89.046875 236.859375 -76.238281 236.859375 -58.75 L 236.859375 -55.5 C 236.859375 -49.15625 236.082031 -43.390625 234.53125 -38.203125 C 232.988281 -33.015625 229.894531 -27.75 225.25 -22.40625 C 220.601562 -17.0625 214.445312 -12.570312 206.78125 -8.9375 C 199.125 -5.300781 188.753906 -2.359375 175.671875 -0.109375 C 162.585938 2.128906 147.300781 3.25 129.8125 3.25 Z M 129.8125 3.25 "/></g></g></g><g fill="#2b2b2b" fill-opacity="1"><g transform="translate(341.705979, 719.422433)"><g><path d="M 80.34375 0 L 80.34375 -125.625 L 5.8125 -125.625 L 5.8125 -172.765625 L 220.84375 -172.765625 L 220.84375 -125.625 L 146.296875 -125.625 L 146.296875 0 Z M 80.34375 0 "/></g></g></g><g fill="#2b2b2b" fill-opacity="1"><g transform="translate(582.508012, 719.422433)"><g><path d="M 131.4375 -176.015625 L 141.890625 -176.015625 C 157.210938 -176.015625 171.179688 -174.96875 183.796875 -172.875 C 196.421875 -170.789062 207.023438 -168.082031 215.609375 -164.75 C 224.203125 -161.425781 231.710938 -157.328125 238.140625 -152.453125 C 244.566406 -147.578125 249.632812 -142.660156 253.34375 -137.703125 C 257.0625 -132.753906 260.039062 -127.335938 262.28125 -121.453125 C 264.53125 -115.566406 266.003906 -110.222656 266.703125 -105.421875 C 267.398438 -100.628906 267.75 -95.597656 267.75 -90.328125 L 267.75 -83.359375 C 267.75 -78.097656 267.398438 -73.066406 266.703125 -68.265625 C 266.003906 -63.472656 264.53125 -58.09375 262.28125 -52.125 C 260.039062 -46.164062 257.101562 -40.671875 253.46875 -35.640625 C 249.832031 -30.609375 244.757812 -25.613281 238.25 -20.65625 C 231.75 -15.707031 224.238281 -11.53125 215.71875 -8.125 C 207.207031 -4.71875 196.644531 -1.972656 184.03125 0.109375 C 171.414062 2.203125 157.367188 3.25 141.890625 3.25 L 131.4375 3.25 C 115.957031 3.25 101.90625 2.203125 89.28125 0.109375 C 76.664062 -1.972656 66.0625 -4.71875 57.46875 -8.125 C 48.882812 -11.53125 41.335938 -15.707031 34.828125 -20.65625 C 28.328125 -25.613281 23.257812 -30.609375 19.625 -35.640625 C 15.988281 -40.671875 13.046875 -46.164062 10.796875 -52.125 C 8.554688 -58.09375 7.085938 -63.472656 6.390625 -68.265625 C 5.691406 -73.066406 5.34375 -78.097656 5.34375 -83.359375 L 5.34375 -90.328125 C 5.34375 -95.597656 5.691406 -100.628906 6.390625 -105.421875 C 7.085938 -110.222656 8.554688 -115.566406 10.796875 -121.453125 C 13.046875 -127.335938 15.988281 -132.753906 19.625 -137.703125 C 23.257812 -142.660156 28.328125 -147.578125 34.828125 -152.453125 C 41.335938 -157.328125 48.882812 -161.425781 57.46875 -164.75 C 66.0625 -168.082031 76.664062 -170.789062 89.28125 -172.875 C 101.90625 -174.96875 115.957031 -176.015625 131.4375 -176.015625 Z M 199.46875 -85.453125 L 199.46875 -88.703125 C 199.46875 -93.816406 198.539062 -98.578125 196.6875 -102.984375 C 194.832031 -107.398438 191.695312 -111.695312 187.28125 -115.875 C 182.875 -120.050781 176.332031 -123.378906 167.65625 -125.859375 C 158.988281 -128.335938 148.617188 -129.578125 136.546875 -129.578125 C 124.160156 -129.578125 113.628906 -128.335938 104.953125 -125.859375 C 96.285156 -123.378906 89.785156 -120.050781 85.453125 -115.875 C 81.117188 -111.695312 78.0625 -107.398438 76.28125 -102.984375 C 74.5 -98.578125 73.609375 -93.816406 73.609375 -88.703125 L 73.609375 -85.921875 C 73.609375 -80.804688 74.535156 -75.96875 76.390625 -71.40625 C 78.253906 -66.84375 81.351562 -62.351562 85.6875 -57.9375 C 90.019531 -53.53125 96.5625 -50.007812 105.3125 -47.375 C 114.0625 -44.738281 124.472656 -43.421875 136.546875 -43.421875 C 148.617188 -43.421875 159.023438 -44.695312 167.765625 -47.25 C 176.515625 -49.8125 183.054688 -53.257812 187.390625 -57.59375 C 191.734375 -61.925781 194.832031 -66.375 196.6875 -70.9375 C 198.539062 -75.507812 199.46875 -80.347656 199.46875 -85.453125 Z M 199.46875 -85.453125 "/></g></g></g><g fill="#2b2b2b" fill-opacity="1"><g transform="translate(869.51971, 719.422433)"><g><path d="M 77.09375 -130.734375 L 77.09375 -101.015625 L 152.796875 -101.015625 C 166.109375 -101.015625 172.765625 -105.96875 172.765625 -115.875 L 172.765625 -116.109375 C 172.765625 -125.859375 166.109375 -130.734375 152.796875 -130.734375 Z M 77.09375 -59.21875 L 77.09375 0 L 11.140625 0 L 11.140625 -172.765625 L 168.125 -172.765625 C 216.582031 -172.765625 240.8125 -157.984375 240.8125 -128.421875 L 240.8125 -125.859375 C 240.8125 -119.972656 239.648438 -114.628906 237.328125 -109.828125 C 235.003906 -105.035156 231.945312 -101.164062 228.15625 -98.21875 C 224.363281 -95.28125 220.644531 -92.957031 217 -91.25 C 213.363281 -89.550781 209.691406 -88.238281 205.984375 -87.3125 C 216.972656 -84.832031 225.640625 -80.070312 231.984375 -73.03125 C 238.328125 -65.988281 241.5 -57.050781 241.5 -46.21875 L 241.5 -20.671875 C 241.5 -11.691406 242.585938 -5.1875 244.765625 -1.15625 L 244.765625 0 L 177.421875 0 C 176.023438 -1.550781 175.328125 -4.570312 175.328125 -9.0625 L 175.328125 -29.265625 C 175.328125 -39.484375 172.65625 -47.03125 167.3125 -51.90625 C 161.96875 -56.78125 152.953125 -59.21875 140.265625 -59.21875 Z M 77.09375 -59.21875 "/></g></g></g><g fill="#2b2b2b" fill-opacity="1"><g transform="translate(1131.917265, 719.422433)"><g><path d="M 11.140625 -172.765625 L 202.265625 -172.765625 L 202.265625 -130.5 L 76.171875 -130.5 L 76.171875 -108.90625 L 199.703125 -108.90625 L 199.703125 -66.875 L 76.171875 -66.875 L 76.171875 -43.1875 L 204.125 -43.1875 L 204.125 0 L 11.140625 0 Z M 11.140625 -172.765625 "/></g></g></g><path stroke-linecap="butt" transform="matrix(0.75, 0.000000000000000205, -0.000000000000000205, 0.75, 95.100933, 407.25)" fill="none" stroke-linejoin="miter" d="M 0.000839816 25.500002 L 1666.396757 25.500002 " stroke="#2b2b2b" stroke-width="51" stroke-opacity="1" stroke-miterlimit="4"/></svg>