<svg xmlns="http://www.w3.org/2000/svg" xmlns:xlink="http://www.w3.org/1999/xlink" width="500" zoomAndPan="magnify" viewBox="0 0 375 374.999991" height="500" preserveAspectRatio="xMidYMid meet" version="1.0"><defs><g/><clipPath id="f93d008239"><path d="M 85.261719 281.859375 L 280.632812 281.859375 L 280.632812 319.980469 L 85.261719 319.980469 Z M 85.261719 281.859375 " clip-rule="nonzero"/></clipPath><clipPath id="07e4de1335"><path d="M 87.511719 281.859375 L 278.382812 281.859375 C 278.980469 281.859375 279.550781 282.097656 279.972656 282.519531 C 280.394531 282.941406 280.632812 283.515625 280.632812 284.109375 L 280.632812 317.730469 C 280.632812 318.324219 280.394531 318.898438 279.972656 319.320312 C 279.550781 319.742188 278.980469 319.980469 278.382812 319.980469 L 87.511719 319.980469 C 86.917969 319.980469 86.34375 319.742188 85.921875 319.320312 C 85.5 318.898438 85.261719 318.324219 85.261719 317.730469 L 85.261719 284.109375 C 85.261719 283.515625 85.5 282.941406 85.921875 282.519531 C 86.34375 282.097656 86.917969 281.859375 87.511719 281.859375 Z M 87.511719 281.859375 " clip-rule="nonzero"/></clipPath></defs><g clip-path="url(#f93d008239)"><g clip-path="url(#07e4de1335)"><path fill="#2b2b2b" d="M 85.261719 281.859375 L 280.632812 281.859375 L 280.632812 319.980469 L 85.261719 319.980469 Z M 85.261719 281.859375 " fill-opacity="1" fill-rule="nonzero"/></g></g><g fill="#2b2b2b" fill-opacity="1"><g transform="translate(86.671338, 319.268764)"><g><path d="M 106.835938 -36.847656 L 0 -36.847656 L 0 -2.226562 C 0 -1.238281 1.238281 0 2.71875 0 L 106.835938 0 C 108.570312 0 109.558594 -1.238281 109.558594 -2.226562 L 109.558594 -34.375 C 109.558594 -35.613281 108.570312 -36.847656 106.835938 -36.847656 Z M 37.839844 -74.6875 L 37.839844 -195.621094 C 37.839844 -196.609375 36.847656 -197.847656 35.363281 -197.847656 L 2.71875 -197.847656 C 1.238281 -197.847656 0 -196.609375 0 -195.621094 L 0 -74.6875 Z M 37.839844 -74.6875 "/></g></g></g><g fill="#2b2b2b" fill-opacity="1"><g transform="translate(151.823565, 247.365922)"><g><path d="M 70.410156 -209.398438 L 2.617188 -209.398438 C 1.308594 -209.398438 0 -208.089844 0 -207.042969 L 0 -170.921875 L 70.410156 -170.921875 C 75.121094 -170.921875 101.296875 -169.613281 101.296875 -146.582031 C 101.296875 -123.546875 75.644531 -123.023438 70.410156 -123.023438 L 0 -123.023438 L 0 -2.355469 C 0 -1.308594 1.308594 0 2.617188 0 L 36.644531 0 C 38.476562 0 39.261719 -1.308594 39.261719 -2.355469 L 39.261719 -84.285156 L 70.410156 -84.285156 C 75.382812 -84.285156 141.082031 -85.070312 141.082031 -146.582031 C 141.082031 -208.089844 78.785156 -209.398438 70.410156 -209.398438 Z M 70.410156 -209.398438 "/></g></g></g></svg>