<svg xmlns="http://www.w3.org/2000/svg" xmlns:xlink="http://www.w3.org/1999/xlink" width="500" zoomAndPan="magnify" viewBox="0 0 375 374.999991" height="500" preserveAspectRatio="xMidYMid meet" version="1.0"><defs><g/><clipPath id="56f0e9c702"><path d="M 22.140625 22.140625 L 352.859375 22.140625 L 352.859375 352.859375 L 22.140625 352.859375 Z M 22.140625 22.140625 " clip-rule="nonzero"/></clipPath><clipPath id="bb321d14f3"><path d="M 187.5 22.140625 C 96.175781 22.140625 22.140625 96.175781 22.140625 187.5 C 22.140625 278.824219 96.175781 352.859375 187.5 352.859375 C 278.824219 352.859375 352.859375 278.824219 352.859375 187.5 C 352.859375 96.175781 278.824219 22.140625 187.5 22.140625 Z M 187.5 22.140625 " clip-rule="nonzero"/></clipPath><clipPath id="af2443e4d8"><path d="M 22.140625 22.140625 L 352.855469 22.140625 L 352.855469 352.855469 L 22.140625 352.855469 Z M 22.140625 22.140625 " clip-rule="nonzero"/></clipPath><clipPath id="998e7df3d9"><path d="M 187.5 22.140625 C 96.175781 22.140625 22.140625 96.175781 22.140625 187.5 C 22.140625 278.824219 96.175781 352.855469 187.5 352.855469 C 278.824219 352.855469 352.855469 278.824219 352.855469 187.5 C 352.855469 96.175781 278.824219 22.140625 187.5 22.140625 Z M 187.5 22.140625 " clip-rule="nonzero"/></clipPath><clipPath id="b6ec853961"><path d="M 230.414062 144.664062 L 282.8125 144.664062 L 282.8125 282.304688 L 230.414062 282.304688 Z M 230.414062 144.664062 " clip-rule="nonzero"/></clipPath><clipPath id="790e563546"><path d="M 92.175781 144.664062 L 144.574219 144.664062 L 144.574219 282.304688 L 92.175781 282.304688 Z M 92.175781 144.664062 " clip-rule="nonzero"/></clipPath><clipPath id="09ff8cc4bb"><path d="M 119.300781 241.496094 L 256.941406 241.496094 L 256.941406 282.304688 L 119.300781 282.304688 Z M 119.300781 241.496094 " clip-rule="nonzero"/></clipPath></defs><g clip-path="url(#56f0e9c702)"><g clip-path="url(#bb321d14f3)"><path fill="#2b2b2b" d="M 22.140625 22.140625 L 352.859375 22.140625 L 352.859375 352.859375 L 22.140625 352.859375 Z M 22.140625 22.140625 " fill-opacity="1" fill-rule="nonzero"/></g></g><g clip-path="url(#af2443e4d8)"><g clip-path="url(#998e7df3d9)"><path stroke-linecap="butt" transform="matrix(0.75, 0, 0, 0.75, 22.141772, 22.141767)" fill="none" stroke-linejoin="miter" d="M 220.477652 -0.00152313 C 98.712019 -0.00152313 -0.00152913 98.712025 -0.00152913 220.477658 C -0.00152913 342.243291 98.712019 440.951631 220.477652 440.951631 C 342.243285 440.951631 440.951625 342.243291 440.951625 220.477658 C 440.951625 98.712025 342.243285 -0.00152313 220.477652 -0.00152313 Z M 220.477652 -0.00152313 " stroke="#2b2b2b" stroke-width="60" stroke-opacity="1" stroke-miterlimit="4"/></g></g><g fill="#ffffff" fill-opacity="1"><g transform="translate(100.550067, 219.351818)"><g><path d="M 62.015625 0 L 62.015625 -96.96875 L 4.484375 -96.96875 L 4.484375 -133.359375 L 170.46875 -133.359375 L 170.46875 -96.96875 L 112.921875 -96.96875 L 112.921875 0 Z M 62.015625 0 "/></g></g></g><g clip-path="url(#b6ec853961)"><path fill="#ffffff" d="M 282.8125 144.664062 L 282.8125 282.304688 L 230.414062 282.304688 L 230.414062 144.664062 Z M 282.8125 144.664062 " fill-opacity="1" fill-rule="nonzero"/></g><g clip-path="url(#790e563546)"><path fill="#ffffff" d="M 144.574219 144.664062 L 144.574219 282.304688 L 92.175781 282.304688 L 92.175781 144.664062 Z M 144.574219 144.664062 " fill-opacity="1" fill-rule="nonzero"/></g><g clip-path="url(#09ff8cc4bb)"><path fill="#ffffff" d="M 119.300781 241.496094 L 256.941406 241.496094 L 256.941406 282.304688 L 119.300781 282.304688 Z M 119.300781 241.496094 " fill-opacity="1" fill-rule="nonzero"/></g></svg>