<svg xmlns="http://www.w3.org/2000/svg" xmlns:xlink="http://www.w3.org/1999/xlink" width="500" zoomAndPan="magnify" viewBox="0 0 375 374.999991" height="500" preserveAspectRatio="xMidYMid meet" version="1.0"><defs><clipPath id="401cdf4df7"><path d="M 22 33 L 360 33 L 360 342 L 22 342 Z M 22 33 " clip-rule="nonzero"/></clipPath><clipPath id="2dc37d11c1"><path d="M 65.03125 0 L 363.695312 76.269531 L 287.429688 374.933594 L -11.238281 298.667969 Z M 65.03125 0 " clip-rule="nonzero"/></clipPath><clipPath id="f302442a52"><path d="M 65.03125 0 L 363.695312 76.269531 L 287.429688 374.933594 L -11.238281 298.667969 Z M 65.03125 0 " clip-rule="nonzero"/></clipPath></defs><g clip-path="url(#401cdf4df7)"><g clip-path="url(#2dc37d11c1)"><g clip-path="url(#f302442a52)"><path fill="#ffffff" d="M 214.386719 38.140625 C 131.898438 17.078125 47.953125 66.871094 26.890625 149.355469 C 5.828125 231.84375 55.621094 315.789062 138.105469 336.851562 C 214.976562 356.480469 293.058594 314.539062 320.390625 241.980469 C 318.003906 241.371094 294.011719 235.246094 286.847656 233.417969 C 264.402344 287.550781 204.988281 318.574219 146.582031 303.660156 C 82.527344 287.304688 43.722656 221.886719 60.082031 157.832031 C 76.4375 93.777344 141.855469 54.972656 205.910156 71.332031 C 242.15625 80.585938 270.289062 105.5625 284.945312 137.101562 L 234.507812 167.019531 L 334.078125 192.445312 L 359.503906 92.875 L 314.507812 119.566406 C 295.296875 80.519531 259.855469 49.75 214.386719 38.140625 Z M 214.386719 38.140625 " fill-opacity="1" fill-rule="nonzero"/></g></g></g></svg>