<svg xmlns="http://www.w3.org/2000/svg" xmlns:xlink="http://www.w3.org/1999/xlink" width="500" zoomAndPan="magnify" viewBox="0 0 375 374.999991" height="500" preserveAspectRatio="xMidYMid meet" version="1.0"><defs><clipPath id="076cd8a776"><path d="M 51.21875 51.21875 L 323.78125 51.21875 L 323.78125 323.78125 L 51.21875 323.78125 Z M 51.21875 51.21875 " clip-rule="nonzero"/></clipPath><clipPath id="2aa80dbfbc"><path d="M 187.5 51.21875 C 112.234375 51.21875 51.21875 112.234375 51.21875 187.5 C 51.21875 262.765625 112.234375 323.78125 187.5 323.78125 C 262.765625 323.78125 323.78125 262.765625 323.78125 187.5 C 323.78125 112.234375 262.765625 51.21875 187.5 51.21875 Z M 187.5 51.21875 " clip-rule="nonzero"/></clipPath><clipPath id="1b8b794229"><path d="M 12.71875 12.71875 L 362.21875 12.71875 L 362.21875 362.21875 L 12.71875 362.21875 Z M 12.71875 12.71875 " clip-rule="nonzero"/></clipPath></defs><g clip-path="url(#076cd8a776)"><g clip-path="url(#2aa80dbfbc)"><path fill="#ffffff" d="M 51.21875 51.21875 L 323.78125 51.21875 L 323.78125 323.78125 L 51.21875 323.78125 Z M 51.21875 51.21875 " fill-opacity="1" fill-rule="nonzero"/></g></g><g clip-path="url(#1b8b794229)"><path fill="#231f20" d="M 12.71875 187.46875 C 12.71875 284.164062 90.773438 362.21875 187.46875 362.21875 C 284.164062 362.21875 362.21875 284.164062 362.21875 187.46875 C 362.21875 90.773438 284.164062 12.71875 187.46875 12.71875 C 90.773438 12.71875 12.71875 90.773438 12.71875 187.46875 Z M 240.28125 104.363281 L 240.28125 246.882812 L 269.40625 211.933594 C 272.511719 208.4375 277.949219 207.660156 281.445312 210.769531 C 283.386719 212.320312 284.550781 215.039062 284.550781 217.371094 C 284.550781 219.3125 283.773438 221.253906 282.609375 222.804688 L 238.339844 276.007812 C 238.339844 276.007812 237.953125 276.007812 237.953125 276.394531 C 237.5625 277.171875 236.785156 277.5625 236.007812 277.949219 C 235.621094 277.949219 235.621094 278.339844 235.234375 278.339844 C 234.066406 278.726562 232.902344 279.113281 231.738281 279.113281 C 230.574219 279.113281 229.40625 278.726562 228.242188 278.339844 C 227.855469 278.339844 227.855469 277.949219 227.464844 277.949219 C 226.691406 277.5625 225.914062 277.171875 225.523438 276.394531 C 225.523438 276.394531 225.136719 276.394531 225.136719 276.007812 L 180.867188 223.195312 C 177.757812 219.699219 178.148438 214.261719 182.03125 211.15625 C 185.914062 208.050781 190.964844 208.4375 194.070312 212.320312 L 223.195312 247.269531 L 223.195312 104.363281 C 223.195312 99.703125 227.078125 95.820312 231.738281 95.820312 C 236.398438 95.820312 240.28125 99.703125 240.28125 104.363281 Z M 146.691406 96.597656 C 147.082031 96.597656 147.082031 96.984375 147.46875 96.984375 C 148.246094 97.375 149.023438 97.761719 149.410156 98.539062 C 149.410156 98.539062 149.800781 98.539062 149.800781 98.929688 L 194.070312 151.742188 C 195.234375 153.292969 196.011719 155.234375 196.011719 157.179688 C 196.011719 159.507812 194.847656 162.226562 192.90625 163.78125 C 189.410156 166.886719 183.972656 166.496094 180.867188 162.613281 L 151.742188 127.664062 L 151.742188 270.183594 C 151.742188 274.84375 147.859375 278.726562 143.199219 278.726562 C 138.539062 278.726562 134.65625 274.84375 134.65625 270.183594 L 134.65625 128.054688 L 105.53125 163.003906 C 102.421875 166.496094 96.984375 167.273438 93.492188 164.167969 C 89.996094 161.0625 89.21875 155.625 92.328125 152.128906 L 136.597656 99.316406 C 136.597656 99.316406 136.984375 99.316406 136.984375 98.929688 C 137.371094 98.152344 138.148438 97.761719 138.925781 97.375 C 139.316406 97.375 139.316406 96.984375 139.703125 96.984375 C 140.867188 96.597656 142.03125 96.210938 143.199219 96.210938 C 144.363281 96.210938 145.527344 96.210938 146.691406 96.597656 Z M 146.691406 96.597656 " fill-opacity="1" fill-rule="nonzero"/></g></svg>